<svg viewBox="0 0 15 19" fill="none" xmlns="http://www.w3.org/2000/svg">
<g clip-path="url(#clip0_934_553)">
<path d="M4.8687 16.1831C4.01568 15.3985 3.76664 13.7499 4.12205 12.5555C4.73829 13.3085 5.59214 13.5471 6.47656 13.6817C7.84189 13.8895 9.18279 13.8118 10.4511 13.1839C10.5962 13.112 10.7303 13.0164 10.8889 12.9195C11.0079 13.267 11.0389 13.6177 10.9973 13.9747C10.8962 14.8441 10.4662 15.5157 9.78233 16.0248C9.50885 16.2284 9.21948 16.4104 8.93704 16.6024C8.06933 17.1926 7.83457 17.8845 8.16062 18.891C8.16836 18.9157 8.1753 18.9402 8.19282 19C7.74979 18.8004 7.42618 18.5099 7.1796 18.128C6.91916 17.7249 6.79526 17.279 6.78875 16.7965C6.78549 16.5617 6.78549 16.3248 6.75411 16.0933C6.67749 15.529 6.41419 15.2763 5.91819 15.2618C5.40914 15.2468 5.00647 15.5635 4.89969 16.0622C4.89154 16.1004 4.88052 16.1387 4.8687 16.1831Z" fill="#17191E"/>
<path d="M0 12.3565C0 12.3565 2.52598 11.1183 5.05902 11.1183L6.96884 5.17091C7.04035 4.8833 7.24911 4.68783 7.48481 4.68783C7.7205 4.68783 7.92926 4.8833 8.00077 5.17091L9.91061 11.1183C12.9106 11.1183 14.9696 12.3565 14.9696 12.3565C14.9696 12.3565 10.679 0.595274 10.6706 0.571676C10.5475 0.223951 10.3396 0 10.0593 0H4.91072C4.63045 0 4.43095 0.223951 4.29942 0.571676C4.29014 0.59483 0 12.3565 0 12.3565Z" fill="#17191E"/>
</g>
<defs>
<clipPath id="clip0_934_553">
<rect width="15" height="19" fill="white"/>
</clipPath>
</defs>
</svg>
