<svg viewBox="0 0 130 41" fill="none" xmlns="http://www.w3.org/2000/svg">
<path d="M127.568 1.26548C128.073 1.43741 128.507 1.75191 128.773 2.13979C129.04 2.52767 129.118 2.95715 128.99 3.33376C124.108 17.6757 103.979 22.9086 88.2759 23.0461C79.2973 23.159 71.6829 21.0953 66.1912 17.1662C65.7345 16.8388 65.2986 16.4929 64.8861 16.1304C49.5868 28.0195 29.1276 35.1608 6.27956 36.5869C6.02393 36.6156 5.75396 36.6006 5.48633 36.5428C5.2187 36.485 4.9591 36.3856 4.72362 36.2508C4.48813 36.116 4.28176 35.9487 4.11726 35.7591C3.95276 35.5696 3.83364 35.3619 3.76727 35.1488C3.70089 34.9358 3.68868 34.722 3.73138 34.5206C3.77408 34.3192 3.87078 34.1345 4.01551 33.978C4.16024 33.8215 4.34992 33.6965 4.57281 33.6107C4.79569 33.5249 5.04704 33.4801 5.31131 33.4791C27.6414 32.1061 47.6102 25.0816 62.4506 13.3788C60.9373 11.2407 60.1714 8.90659 60.2462 6.66016C60.2531 5.32174 60.6914 4.06751 61.5207 3.01319C62.3501 1.95887 63.5437 1.13841 64.9916 0.627488C66.3347 0.0930068 67.9834 0.0338526 69.5958 0.462294C70.4022 0.688844 71.1582 1.0687 71.7907 1.56524C72.4232 2.06178 72.9111 2.65825 73.2072 3.29719C74.3851 5.74743 73.1279 8.85824 71.2789 10.669C70.059 11.8665 68.7863 13.0248 67.4607 14.1441C67.8048 14.4666 68.1742 14.7724 68.5661 15.0591C74.343 19.1909 82.0839 20.0089 87.5588 19.9499C102.104 19.7988 120.712 15.0408 125.18 2.03718C125.309 1.66058 125.632 1.3677 126.08 1.22297C126.528 1.07825 127.063 1.09354 127.568 1.26548ZM65.0869 11.1283C66.0933 10.2526 67.0661 9.35125 68.005 8.42436C69.343 7.11571 70.0456 5.0098 69.542 3.90878C69.4909 3.77808 69.394 3.65554 69.2638 3.55665C69.1335 3.45777 68.9756 3.387 68.8101 3.35332C68.1805 3.23159 67.557 3.28946 67.0544 3.51629C66.1504 3.83988 65.4072 4.35761 64.894 5.02136C64.3807 5.68511 64.114 6.47334 64.1187 7.3128C64.0811 8.57493 64.4121 9.87954 65.0869 11.1283Z" fill="white"/>
<path d="M13.3431 27.6566C13.6966 27.774 14.0194 27.9624 14.2754 28.2008C14.5315 28.4393 14.7107 28.7184 14.7931 29.0071C14.8755 29.2958 14.8579 29.5828 14.7422 29.836C14.6265 30.0892 14.4173 30.2987 14.1379 30.4412C11.5821 31.7896 9.11146 33.262 6.75496 34.8156C10.964 35.5995 15.1558 36.5713 19.3092 37.7261C19.5641 37.797 19.8079 37.9051 20.0265 38.0444C20.2451 38.1837 20.4343 38.3515 20.5833 38.538C20.7323 38.7246 20.8381 38.9263 20.8948 39.1317C20.9514 39.3372 20.9578 39.5422 20.9135 39.7352C20.8692 39.9282 20.7751 40.1054 20.6366 40.2566C20.4981 40.4078 20.3179 40.5301 20.1062 40.6165C19.8946 40.7029 19.6558 40.7517 19.4032 40.7601C19.1507 40.7685 18.8895 40.7363 18.6345 40.6655C13.2578 39.1724 7.81658 37.9984 2.36019 37.1542C1.98364 37.0966 1.61651 36.9559 1.30254 36.7488C0.988566 36.5416 0.74096 36.2768 0.589205 35.9859C0.437449 35.6949 0.387925 35.3901 0.446545 35.1077C0.505165 34.8252 0.669454 34.5771 0.919846 34.3928C4.23935 31.9655 7.80099 29.7478 11.5813 27.7541C11.8175 27.6231 12.101 27.5459 12.4077 27.5289C12.7144 27.5119 13.0353 27.5557 13.3431 27.6566Z" fill="white"/>
</svg>
