<svg viewBox="0 0 31 31" fill="none" xmlns="http://www.w3.org/2000/svg">
<path d="M31 2.71119C31 2.02638 30.728 1.36961 30.2437 0.885379C29.7595 0.401144 29.1027 0.129105 28.4179 0.129105L7.76123 0C7.07642 0 6.41965 0.272041 5.93542 0.756276C5.45118 1.24051 5.17914 1.89727 5.17914 2.58209C5.17914 3.2669 5.45118 3.92366 5.93542 4.4079C6.41965 4.89213 7.07642 5.16417 7.76123 5.16417H22.1176L0.763777 26.5697C0.521762 26.8097 0.32967 27.0953 0.198581 27.4099C0.0674918 27.7246 0 28.0621 0 28.4029C0 28.7438 0.0674918 29.0813 0.198581 29.396C0.32967 29.7106 0.521762 29.9962 0.763777 30.2362C1.00381 30.4782 1.2894 30.6703 1.60405 30.8014C1.9187 30.9325 2.25619 31 2.59706 31C2.93792 31 3.27542 30.9325 3.59007 30.8014C3.90472 30.6703 4.1903 30.4782 4.43034 30.2362L25.8358 8.83073V23.2388C25.8358 23.9236 26.1079 24.5803 26.5921 25.0646C27.0763 25.5488 27.7331 25.8209 28.4179 25.8209C29.1027 25.8209 29.7595 25.5488 30.2437 25.0646C30.728 24.5803 31 23.9236 31 23.2388V2.71119Z" fill="white"/>
</svg>
