<svg viewBox="0 0 20 22" fill="none" xmlns="http://www.w3.org/2000/svg">
<path d="M17.584 10.9995L8.29167 1.70698C7.90123 1.31647 7.90123 0.683381 8.29174 0.292873C8.68218 -0.0976353 9.31534 -0.0976354 9.70585 0.292939L19.7052 10.2926C19.8927 10.48 19.998 10.7343 19.998 10.9995C19.998 11.2648 19.8927 11.5191 19.7051 11.7066L9.70578 21.7057C9.51059 21.9009 9.25468 21.9985 8.99876 21.9985C8.74284 21.9985 8.48693 21.9009 8.29167 21.7056C7.90123 21.3151 7.90123 20.682 8.29174 20.2915L17.584 10.9995Z" fill="white"/>
<path d="M9.58407 10.9995L0.291738 1.70698C-0.0987701 1.31647 -0.0987701 0.683381 0.291738 0.292873C0.682179 -0.0976353 1.31534 -0.0976354 1.70585 0.292939L11.7052 10.2926C11.8927 10.4801 11.998 10.7344 11.998 10.9996C11.998 11.2648 11.8927 11.5191 11.7051 11.7067L1.70578 21.7058C1.51066 21.9009 1.25474 21.9985 0.998825 21.9985C0.742908 21.9985 0.486992 21.9009 0.291738 21.7056C-0.0987701 21.3151 -0.0987701 20.682 0.291738 20.2915L9.58407 10.9995Z" fill="white"/>
</svg>
