<svg viewBox="0 0 24 18" fill="none" xmlns="http://www.w3.org/2000/svg">
<path d="M24 1.50016L24 16.5002C24 17.3502 23.35 18.0002 22.5 18.0002H21L21 4.38716L12 10.8502L3 4.38716L3 18.0002H1.5C0.649 18.0002 0 17.3502 0 16.5002L0 1.50016C0 1.07516 0.162 0.700159 0.431 0.432159C0.571384 0.292519 0.738278 0.182364 0.921862 0.108175C1.10545 0.0339857 1.30201 -0.00273976 1.5 0.000159171L2 0.000159171L12 7.25016L22 0.000159171L22.5 0.000159171C22.925 0.000159171 23.3 0.162159 23.569 0.432159C23.839 0.700159 24 1.07516 24 1.50016Z" fill="black"/>
</svg>
