<svg width="23" height="21" viewBox="0 0 23 21" fill="none" xmlns="http://www.w3.org/2000/svg">
<path d="M11.7664 3.2475C11.6951 3.18074 11.6002 3.14348 11.5014 3.14348C11.4027 3.14348 11.3078 3.18074 11.2364 3.2475L2.41501 11.4914C2.37755 11.5265 2.34774 11.5686 2.3274 11.6152C2.30706 11.6619 2.2966 11.7121 2.29666 11.7628L2.29522 19.5C2.29522 19.8978 2.45677 20.2794 2.74432 20.5607C3.03188 20.842 3.42189 21 3.82855 21H8.43333C8.63666 21 8.83167 20.921 8.97544 20.7803C9.11922 20.6397 9.2 20.4489 9.2 20.25V13.875C9.2 13.7755 9.24038 13.6802 9.31227 13.6098C9.38416 13.5395 9.48166 13.5 9.58333 13.5H13.4167C13.5183 13.5 13.6158 13.5395 13.6877 13.6098C13.7596 13.6802 13.8 13.7755 13.8 13.875V20.25C13.8 20.4489 13.8808 20.6397 14.0245 20.7803C14.1683 20.921 14.3633 21 14.5666 21H19.1695C19.5762 21 19.9662 20.842 20.2537 20.5607C20.5413 20.2794 20.7028 19.8978 20.7028 19.5V11.7628C20.7029 11.7121 20.6924 11.6619 20.6721 11.6152C20.6518 11.5686 20.622 11.5265 20.5845 11.4914L11.7664 3.2475Z" fill="#7201E3"/>
<path d="M22.7561 9.94453L19.1719 6.59016V1.5C19.1719 1.30109 19.0911 1.11032 18.9474 0.96967C18.8036 0.829018 18.6086 0.75 18.4052 0.75H16.1052C15.9019 0.75 15.7069 0.829018 15.5631 0.96967C15.4194 1.11032 15.3386 1.30109 15.3386 1.5V3L12.5633 0.404062C12.3035 0.147187 11.9173 0 11.5 0C11.0841 0 10.6988 0.147188 10.4391 0.404531L0.247268 9.94359C-0.0507734 10.2248 -0.0881483 10.6875 0.183059 10.9922C0.251164 11.0691 0.334553 11.1316 0.428152 11.176C0.521751 11.2204 0.623602 11.2457 0.727507 11.2503C0.831411 11.255 0.935196 11.2389 1.03254 11.2031C1.12989 11.1672 1.21877 11.1124 1.29376 11.0419L11.2364 1.7475C11.3078 1.68074 11.4027 1.64348 11.5014 1.64348C11.6002 1.64348 11.6951 1.68074 11.7664 1.7475L21.71 11.0419C21.8565 11.1793 22.0527 11.2543 22.2556 11.2504C22.4585 11.2465 22.6516 11.1641 22.7925 11.0212C23.0867 10.7231 23.0623 10.2309 22.7561 9.94453Z" fill="#7201E3"/>
</svg>
