<svg width="23" height="19" viewBox="0 0 23 19" fill="none" xmlns="http://www.w3.org/2000/svg">
<path d="M23 3.30874C23.0009 2.67221 22.8252 2.04897 22.4941 1.51396C22.1629 0.97894 21.6905 0.554929 21.1335 0.292909C20.5765 0.0308895 19.9587 -0.0579844 19.3543 0.0369745C18.75 0.131933 18.1848 0.406682 17.7269 0.828183C17.4789 1.05597 17.2664 1.32242 17.0968 1.61804V1.62114C17.0701 1.6676 17.0448 1.71509 17.02 1.76259L17.0081 1.78788C16.9873 1.82867 16.9679 1.86997 16.9491 1.91178C16.9432 1.92469 16.9377 1.93759 16.9323 1.9505C16.9159 1.98819 16.9 2.02639 16.8852 2.06511C16.8787 2.08111 16.8728 2.09711 16.8668 2.11312C16.8534 2.14925 16.8406 2.18539 16.8282 2.22204L16.8103 2.27677C16.7994 2.31187 16.789 2.34749 16.7791 2.38311C16.7731 2.40325 16.7677 2.42286 16.7627 2.443C16.7533 2.47759 16.7454 2.51269 16.7375 2.54625C16.7325 2.56741 16.7275 2.58858 16.7231 2.60974C16.7161 2.64485 16.7097 2.68047 16.7037 2.71299C16.6998 2.73468 16.6958 2.75636 16.6923 2.77804C16.6869 2.81418 16.6824 2.85083 16.678 2.88748C16.6755 2.90865 16.6725 2.92982 16.67 2.9515C16.6661 2.99125 16.6636 3.031 16.6606 3.07127C16.6606 3.08985 16.6576 3.10844 16.6567 3.12702C16.6537 3.18587 16.6517 3.24473 16.6517 3.30461C16.6517 3.35623 16.6517 3.40786 16.6557 3.45639V3.48943C16.6583 3.53795 16.6618 3.58648 16.6661 3.63501L16.6691 3.65979C16.6735 3.70367 16.6785 3.74703 16.6849 3.78988C16.6849 3.79866 16.6849 3.80795 16.6884 3.81672C16.6953 3.8637 16.7037 3.91017 16.7127 3.95663C16.7127 3.96798 16.7171 3.97883 16.7191 3.99018C16.728 4.03458 16.738 4.07898 16.7489 4.12286V4.13267C16.7603 4.17861 16.7726 4.22353 16.786 4.26844L16.7964 4.30354C16.8098 4.34742 16.8237 4.39027 16.8386 4.43312C16.8416 4.44241 16.845 4.4517 16.8485 4.461C16.8619 4.49765 16.8758 4.53431 16.8901 4.57044C16.8941 4.58128 16.8981 4.59161 16.9025 4.60193C16.9194 4.64272 16.9367 4.6835 16.9551 4.72377L16.9714 4.75836C16.9888 4.79449 17.0061 4.83063 17.0245 4.86625C17.2832 5.36707 17.6611 5.79031 18.1219 6.09543C18.2429 6.17591 18.3691 6.2475 18.4996 6.30967L18.519 6.31896C18.6069 6.36026 18.6966 6.39743 18.7881 6.43047L18.8352 6.44699L18.9096 6.47125C18.9319 6.47848 18.9542 6.48468 18.977 6.49139L19.0722 6.5172L19.1579 6.53785L19.2149 6.54972L19.3056 6.56676L19.3522 6.5745C19.3968 6.58121 19.4419 6.58741 19.487 6.59257L19.5252 6.59619C19.5614 6.59928 19.5981 6.60238 19.6348 6.60445L19.6774 6.60703C19.727 6.60703 19.7736 6.61116 19.8221 6.61116C19.8796 6.61116 19.9361 6.61116 19.9926 6.60599L20.0462 6.60186C20.0848 6.59877 20.123 6.59619 20.1612 6.59206L20.2231 6.5838C20.2578 6.57915 20.293 6.5745 20.3277 6.56883L20.3902 6.55695C20.4239 6.55076 20.4581 6.54405 20.4893 6.53682L20.5503 6.52185C20.584 6.51359 20.6177 6.50533 20.6494 6.49552C20.6688 6.49036 20.6876 6.48468 20.7069 6.47848C20.7411 6.46816 20.7753 6.45732 20.809 6.44596L20.8616 6.42737C20.8968 6.41447 20.9315 6.40105 20.9662 6.38711L21.0123 6.36801C21.0495 6.35252 21.0861 6.336 21.1223 6.31896L21.1595 6.30141C21.1997 6.28179 21.2393 6.26166 21.2785 6.23998L21.3028 6.22759C21.3484 6.20178 21.394 6.17596 21.4386 6.14757H21.4415C21.7277 5.97239 21.9859 5.7519 22.2069 5.494C22.7187 4.89095 23.0008 4.11361 23 3.30874Z" fill="#7201E3"/>
<path d="M16.8227 7.15373L11.5902 11.3921C11.451 11.5048 11.2797 11.566 11.1034 11.566C10.9271 11.566 10.7559 11.5048 10.6167 11.3921L3.47875 5.61016C3.39489 5.5442 3.32444 5.46154 3.27152 5.36699C3.21859 5.27243 3.18424 5.16786 3.17046 5.05936C3.15667 4.95085 3.16373 4.84058 3.19122 4.73494C3.21871 4.6293 3.26608 4.53041 3.33059 4.444C3.39509 4.3576 3.47544 4.28541 3.56697 4.23162C3.6585 4.17784 3.75938 4.14354 3.86374 4.13071C3.96811 4.11788 4.07388 4.12678 4.17492 4.15689C4.27595 4.18701 4.37024 4.23773 4.45228 4.30612L11.1034 9.69366L15.7738 5.91061C15.3219 5.14923 15.0768 4.27446 15.0645 3.37946C15.0522 2.48445 15.2732 1.60273 15.7039 0.828183H2.77586C2.0399 0.829003 1.33431 1.13385 0.813901 1.67583C0.293496 2.21782 0.000787267 2.95267 0 3.71915V16.109C0.000787267 16.8755 0.293496 17.6104 0.813901 18.1523C1.33431 18.6943 2.0399 18.9992 2.77586 19H19.431C20.167 18.9992 20.8726 18.6943 21.393 18.1523C21.9134 17.6104 22.2061 16.8755 22.2069 16.109V7.6008C21.372 8.10446 20.4097 8.33145 19.4479 8.25159C18.4861 8.17173 17.5704 7.7888 16.8227 7.15373Z" fill="#7201E3"/>
</svg>
