<svg width="18" height="23" viewBox="0 0 18 23" fill="none" xmlns="http://www.w3.org/2000/svg">
<path d="M15.4689 13.7982C15.8012 13.798 16.1304 13.8648 16.4374 13.9947C16.7445 14.1247 17.0235 14.3152 17.2586 14.5554C17.4936 14.7957 17.6801 15.0809 17.8073 15.3948C17.9345 15.7087 18 16.0452 18 16.385V17.4409C17.9999 18.1005 17.7981 18.7436 17.4229 19.2802C15.6838 21.7681 12.8433 23 8.99606 23C5.14655 23 2.30836 21.767 0.573715 19.2767C0.200603 18.741 6.44027e-05 18.0997 2.50118e-07 17.4421V16.3839C-0.00014752 16.0441 0.0651831 15.7076 0.19226 15.3936C0.319336 15.0796 0.505669 14.7943 0.740613 14.5539C0.975557 14.3136 1.25451 14.123 1.56153 13.9929C1.86855 13.8628 2.19763 13.7959 2.52997 13.7959H15.4678L15.4689 13.7982ZM8.99606 0C10.4878 0 11.9185 0.605923 12.9733 1.68447C14.0281 2.76302 14.6207 4.22585 14.6207 5.75115C14.6207 7.27645 14.0281 8.73928 12.9733 9.81783C11.9185 10.8964 10.4878 11.5023 8.99606 11.5023C7.50431 11.5023 6.07366 10.8964 5.01884 9.81783C3.96401 8.73928 3.37142 7.27645 3.37142 5.75115C3.37142 4.22585 3.96401 2.76302 5.01884 1.68447C6.07366 0.605923 7.50431 0 8.99606 0Z" fill="#7201E3"/>
</svg>
