<svg viewBox="0 0 43 43" fill="none" xmlns="http://www.w3.org/2000/svg">
<path d="M41.2982 19.7794H23.2461V1.73422C23.2461 1.29914 23.0732 0.881879 22.7654 0.574232C22.4576 0.266585 22.0402 0.09375 21.605 0.09375C21.1697 0.09375 20.7523 0.266585 20.4445 0.574232C20.1368 0.881879 19.9639 1.29914 19.9639 1.73422V19.7794H1.91171C1.47646 19.7794 1.05904 19.9522 0.751275 20.2598C0.443509 20.5675 0.270607 20.9847 0.270607 21.4198C0.262508 21.633 0.300223 21.8455 0.381209 22.0429C0.462195 22.2403 0.58457 22.418 0.740088 22.5642C0.895606 22.7103 1.08065 22.8214 1.28276 22.89C1.48486 22.9586 1.69933 22.9831 1.91171 22.9619H19.9639V41.1054C19.9639 41.5405 20.1368 41.9578 20.4445 42.2654C20.7523 42.5731 21.1697 42.7459 21.605 42.7459C22.0402 42.7459 22.4576 42.5731 22.7654 42.2654C23.0732 41.9578 23.2461 41.5405 23.2461 41.1054V23.0603H41.2982C41.7335 23.0603 42.1509 22.8875 42.4587 22.5798C42.7664 22.2722 42.9393 21.8549 42.9393 21.4198C42.9393 20.9847 42.7664 20.5675 42.4587 20.2598C42.1509 19.9522 41.7335 19.7794 41.2982 19.7794Z" fill="#F2EDF6"/>
</svg>
