<svg width="14" height="23" viewBox="0 0 14 23" fill="none" xmlns="http://www.w3.org/2000/svg">
<path d="M-0.00062116 6.49053H3.40395C3.40395 4.48931 4.58523 2.94419 6.91168 2.94419C8.67845 2.94419 10.2982 3.82308 10.2982 5.93705C10.2982 7.56417 9.33357 8.31239 7.80925 9.45009C6.07344 10.7031 4.69872 12.1662 4.79673 14.5416L4.81478 15.7279H8.18582V14.8183C8.18582 12.9785 8.88995 12.443 10.7908 11.0106C12.3616 9.8242 13.9994 8.50713 13.9994 5.74231C13.9994 1.87054 10.7083 0 7.10513 0C3.68508 0 -0.0831562 1.65787 -0.00062116 6.49053ZM4.02812 20.6247C4.02812 21.9904 5.12429 23 6.63313 23C8.20387 23 9.28457 21.9904 9.28457 20.6247C9.28457 19.2102 8.20129 18.216 6.63055 18.216C5.12429 18.216 4.02812 19.2102 4.02812 20.6247Z" fill="#7201E3"/>
</svg>
