<svg width="24" height="18" viewBox="0 0 24 18" fill="none" xmlns="http://www.w3.org/2000/svg">
<path d="M20.6659 10.3475C19.8286 10.3519 19.1009 10.5535 18.4916 10.8517C18.268 10.4089 18.0444 10.0143 18.005 9.72496C17.9611 9.38739 17.9085 9.18134 17.9611 8.77801C18.0137 8.37468 18.2505 7.80037 18.2461 7.75653C18.2417 7.71269 18.1935 7.50664 17.7113 7.50225C17.2291 7.49787 16.8126 7.59432 16.7644 7.72146C16.7162 7.84859 16.6241 8.13794 16.5627 8.43605C16.4795 8.87446 15.5983 10.4396 15.0942 11.2594C14.932 10.9393 14.7917 10.6588 14.761 10.4352C14.7172 10.0976 14.6646 9.89156 14.7172 9.48822C14.7698 9.08489 15.0065 8.51058 15.0021 8.46674C14.9978 8.4229 14.9495 8.21685 14.4673 8.21247C13.9851 8.20809 13.5687 8.30453 13.5205 8.43167C13.4722 8.55881 13.4196 8.85692 13.3188 9.14627C13.218 9.43562 12.0475 12.0485 11.7407 12.7236C11.5829 13.07 11.447 13.3462 11.3505 13.5347C11.3505 13.5347 11.3461 13.5478 11.333 13.5698C11.2497 13.732 11.2015 13.8197 11.2015 13.8197C11.2015 13.8197 11.2015 13.8197 11.2015 13.824C11.1357 13.9424 11.0656 14.052 11.0305 14.052C11.0042 14.052 10.956 13.7364 11.0393 13.3067C11.2146 12.3992 11.6311 10.9876 11.6267 10.9393C11.6267 10.913 11.7056 10.6675 11.3549 10.5404C11.013 10.4133 10.8902 10.6237 10.8596 10.6237C10.8289 10.6237 10.807 10.6982 10.807 10.6982C10.807 10.6982 11.1883 9.1112 10.0793 9.1112C9.38664 9.1112 8.43099 9.86964 7.95755 10.5535C7.65946 10.7158 7.02383 11.0621 6.34435 11.4347C6.08572 11.5794 5.81831 11.7241 5.56844 11.86C5.55091 11.8425 5.53337 11.8205 5.51584 11.803C4.17443 10.3694 1.69325 9.3567 1.79846 7.43211C1.83792 6.73066 2.07902 4.88936 6.56354 2.6535C10.2546 0.834124 13.1917 1.33829 13.7002 2.45622C14.4279 4.05201 12.1264 7.01562 8.31263 7.44526C6.85725 7.60747 6.09448 7.04631 5.9016 6.83588C5.69995 6.61668 5.66926 6.60353 5.59474 6.64737C5.472 6.71313 5.55091 6.91041 5.59474 7.02439C5.70872 7.32251 6.17777 7.84859 6.97122 8.10725C7.67261 8.33522 9.37787 8.46236 11.4426 7.66446C13.7528 6.77012 15.5589 4.28437 15.0284 2.20195C14.498 0.0888371 10.9911 -0.608226 7.67261 0.571082C5.69995 1.27253 3.56071 2.37731 2.02203 3.81527C0.194032 5.52505 -0.0952919 7.01124 0.0230678 7.63378C0.448286 9.84333 3.49495 11.2813 4.71362 12.3466C4.65225 12.3817 4.59526 12.4124 4.54704 12.4387C3.93771 12.7412 1.61435 13.9556 1.0357 15.2401C0.378147 16.6956 1.14091 17.739 1.64503 17.8793C3.21001 18.3133 4.81883 17.5329 5.68242 16.244C6.546 14.9551 6.44079 13.2804 6.04188 12.5132C6.0375 12.5044 6.03311 12.4957 6.02434 12.4869C6.18216 12.3948 6.34435 12.2984 6.50217 12.2063C6.81341 12.0222 7.12027 11.8512 7.38329 11.7109C7.23424 12.1187 7.12465 12.6053 7.07205 13.3067C7.00629 14.1309 7.34384 15.2006 7.78659 15.6215C7.98385 15.8056 8.21619 15.81 8.36524 15.81C8.88251 15.81 9.11485 15.3804 9.37349 14.8718C9.68911 14.2493 9.97405 13.5259 9.97405 13.5259C9.97405 13.5259 9.61897 15.4812 10.5834 15.4812C10.9341 15.4812 11.2892 15.0253 11.447 14.7929C11.447 14.7973 11.447 14.7973 11.447 14.7973C11.447 14.7973 11.4557 14.7841 11.4733 14.7535C11.5083 14.6965 11.5303 14.6614 11.5303 14.6614C11.5303 14.6614 11.5303 14.657 11.5303 14.6526C11.6705 14.4071 11.9862 13.8503 12.4552 12.9253C13.0602 11.7329 13.6432 10.2423 13.6432 10.2423C13.6432 10.2423 13.6958 10.6062 13.8755 11.2112C13.9807 11.5663 14.1999 11.9564 14.3753 12.3335C14.235 12.5307 14.1473 12.6404 14.1473 12.6404C14.1473 12.6404 14.1473 12.6404 14.1517 12.6447C14.0377 12.7938 13.915 12.956 13.7791 13.1138C13.3013 13.6838 12.7314 14.337 12.6525 14.5255C12.5604 14.7491 12.5823 14.9113 12.7577 15.0428C12.8848 15.1393 13.1128 15.1524 13.3451 15.1393C13.7747 15.1086 14.0772 15.0034 14.2262 14.9376C14.4586 14.8543 14.7304 14.7272 14.9846 14.5386C15.4537 14.1923 15.7386 13.6969 15.7123 13.0437C15.6992 12.6842 15.5808 12.3247 15.4361 11.9871C15.48 11.9258 15.5194 11.8644 15.5633 11.803C16.3041 10.7201 16.8784 9.53207 16.8784 9.53207C16.8784 9.53207 16.931 9.89594 17.1107 10.5009C17.1984 10.8078 17.3781 11.141 17.5359 11.4654C16.8389 12.031 16.4093 12.6886 16.2559 13.1182C15.9797 13.9161 16.1945 14.2756 16.6022 14.3589C16.7863 14.3984 17.0493 14.3107 17.2422 14.2274C17.4877 14.1485 17.777 14.0126 18.0532 13.8109C18.5223 13.4646 18.9738 12.9823 18.9475 12.3291C18.9343 12.031 18.8554 11.7372 18.7458 11.4523C19.3376 11.2068 20.1004 11.0709 21.0736 11.1848C23.1602 11.4304 23.5723 12.7324 23.4934 13.2804C23.4145 13.8284 22.9761 14.1265 22.8314 14.2186C22.6868 14.3107 22.6385 14.3414 22.6517 14.4071C22.6692 14.5036 22.7394 14.4992 22.8621 14.4816C23.0331 14.451 23.958 14.0389 23.9975 13.0305C24.0632 11.7416 22.8358 10.3343 20.6659 10.3475ZM4.56896 15.7749C3.87633 16.529 2.91192 16.814 2.49547 16.5728C2.04833 16.3142 2.22368 15.2006 3.07412 14.4027C3.59139 13.9161 4.25772 13.4646 4.70047 13.1884C4.80129 13.127 4.95034 13.0393 5.13007 12.9297C5.16076 12.9122 5.17829 12.9034 5.17829 12.9034C5.21336 12.8815 5.24843 12.8596 5.2835 12.8376C5.59474 13.9775 5.29665 14.9814 4.56896 15.7749ZM9.6102 12.3466C9.3691 12.9341 8.86498 14.4378 8.55812 14.3545C8.2951 14.2844 8.1329 13.1445 8.50551 12.0178C8.69401 11.4523 9.09293 10.7771 9.32526 10.5141C9.70226 10.0932 10.1187 9.95293 10.2195 10.1239C10.3467 10.3475 9.75925 11.9784 9.6102 12.3466ZM13.7703 14.337C13.6695 14.3896 13.5731 14.4247 13.5292 14.3984C13.4985 14.3808 13.5731 14.3107 13.5731 14.3107C13.5731 14.3107 14.0947 13.7495 14.3008 13.4952C14.4191 13.3462 14.5594 13.1708 14.7084 12.9735C14.7084 12.9911 14.7084 13.013 14.7084 13.0305C14.7084 13.7013 14.0597 14.1528 13.7703 14.337ZM16.9792 13.6048C16.9047 13.5522 16.9178 13.3769 17.1677 12.8289C17.2641 12.614 17.4921 12.2546 17.8822 11.9082C17.9261 12.0485 17.9568 12.1844 17.9524 12.3115C17.948 13.1577 17.343 13.4733 16.9792 13.6048Z" fill="#CD6799"/>
</svg>
