<svg width="26" height="15" viewBox="0 0 26 15" fill="none" xmlns="http://www.w3.org/2000/svg">
<path d="M12.7168 0.00492171C8.1427 0.1446 6.78322 3.28394 6.47168 4.98468C6.87762 4.35426 8.15686 2.97104 10.0403 2.97104C12.2353 2.97104 13.9063 5.32486 14.9259 6.05957C16.1647 6.9522 18.6538 8.1308 21.9216 7.17526C24.5272 6.41333 25.7357 3.75561 26 2.4948C24.7397 4.14112 22.8279 5.12996 20.463 3.96424C18.8344 3.16149 17.6166 -0.144716 12.7168 0.00492171Z" fill="#07B6D5"/>
<path d="M6.2451 7.47456C1.67102 7.61424 0.311547 10.7536 0 12.4543C0.405954 11.8239 1.68519 10.4407 3.56863 10.4407C5.76362 10.4407 7.43464 12.7945 8.45425 13.5292C9.69299 14.4218 12.1821 15.6004 15.4499 14.6449C18.0556 13.883 19.264 11.2252 19.5283 9.96444C18.268 11.6108 16.3562 12.5996 13.9913 11.4339C12.3627 10.6311 11.1449 7.32492 6.2451 7.47456Z" fill="#07B6D5"/>
</svg>
