<svg width="18" height="20" viewBox="0 0 18 20" fill="none" xmlns="http://www.w3.org/2000/svg">
<g clip-path="url(#clip0_936_10)">
<rect x="-10" y="-5" width="131" height="30" rx="4" fill="#FCEFEF"/>
<rect x="-8" y="-3" width="34" height="26" rx="4" fill="white"/>
<path d="M17.446 15.415L9.35578 20V16.429L14.3919 13.6507L17.446 15.4134V15.415ZM18 14.9121V5.32389L15.0401 7.03776V13.2015L18 14.9121ZM0.553971 15.415L8.64422 20V16.429L3.60812 13.6507L0.553971 15.415ZM0 14.9121V5.32389L2.95993 7.03776V13.2015L0 14.9121ZM0.347653 4.70215L8.64422 0V3.45052L3.32708 6.38021L3.28484 6.403L0.347653 4.70215ZM17.6523 4.70215L9.35578 0V3.45052L14.6729 6.38021L14.7152 6.40462L17.6523 4.70378V4.70215Z" fill="#8ED6FB"/>
<path d="M8.64429 15.6263L3.66992 12.8757V7.44759L8.64429 10.3252V15.6263ZM9.35584 15.6263L14.3302 12.8789V7.44759L9.35584 10.3252V15.6263ZM4.0062 6.83724L9.00007 4.07031L13.9939 6.82096L9.00007 9.70833L4.0062 6.82096V6.83724Z" fill="#1C78C0"/>
</g>
<defs>
<clipPath id="clip0_936_10">
<rect width="18" height="20" fill="white"/>
</clipPath>
</defs>
</svg>
